<svg xmlns="http://www.w3.org/2000/svg" viewBox="0 0 389.65 519.26">
  <title>roo_logo_dark</title>
  <g id="Layer_1" data-name="Layer 1">
    <path d="M473,378.82c0,89-72.37,161.33-161.33,161.33S150.34,467.78,150.34,378.82s72.37-161.33,161.33-161.33a35.07,35.07,0,0,1,0,70.14,91.19,91.19,0,1,0,91.19,91.19,35.07,35.07,0,1,1,70.14,0Zm66.1-96.62A161,161,0,0,0,411.66,159.49a35.07,35.07,0,1,0-12.91,68.94,90.94,90.94,0,0,1,72,69.3,35.07,35.07,0,1,0,68.4-15.53Z" transform="translate(-150.34 -158.89)"/>
    <path d="M197.81,609.68a1.88,1.88,0,0,1,1.88-1.88h28.24A21.39,21.39,0,0,1,249.45,629c0,9.08-6,16.49-14.61,19.95l13.53,25.08a1.87,1.87,0,0,1-1.68,2.86H236.32a1.69,1.69,0,0,1-1.58-.89l-13.13-26.17h-11V675a1.94,1.94,0,0,1-1.88,1.88h-9.08a1.87,1.87,0,0,1-1.88-1.88Zm29,29.62a10.06,10.06,0,0,0,9.78-10.07,9.82,9.82,0,0,0-9.78-9.58H210.75V639.3Z" transform="translate(-150.34 -158.89)"/>
    <path d="M431.57,626.32c-13.95,0-25.3,11.85-25.3,25.79,0,14.19,11.35,26,25.3,26s25.3-11.85,25.3-26C456.87,638.17,445.51,626.32,431.57,626.32Zm0,40.28c-7.6,0-13.52-6.48-13.52-14.5s5.91-14.22,13.52-14.22,13.52,6.34,13.52,14.22S439,666.6,431.57,666.6Z" transform="translate(-150.34 -158.89)"/>
    <path d="M327.1,626.32c-13.95,0-25.3,11.85-25.3,25.79,0,14.19,11.35,26,25.3,26s25.3-11.85,25.3-26C352.4,638.17,341,626.32,327.1,626.32Zm0,40.28c-7.6,0-13.52-6.48-13.52-14.5s5.91-14.22,13.52-14.22,13.52,6.34,13.52,14.22S334.56,666.6,327.1,666.6Z" transform="translate(-150.34 -158.89)"/>
  </g>
</svg>
